<mxfile host="app.diagrams.net" modified="2022-05-10T21:37:11.096Z" agent="5.0 (Windows NT 10.0; Win64; x64) AppleWebKit/537.36 (KHTML, like Gecko) Chrome/101.0.4951.54 Safari/537.36" etag="SkvoVftzLx_nQfxZcLKk" version="18.0.2" type="github">
  <diagram id="1EWJdIrW8jpx9071WqiY" name="Page-1">
    <mxGraphModel dx="782" dy="681" grid="1" gridSize="10" guides="1" tooltips="1" connect="1" arrows="1" fold="1" page="1" pageScale="1" pageWidth="1169" pageHeight="827" math="0" shadow="0">
      <root>
        <mxCell id="0" />
        <mxCell id="1" parent="0" />
        <mxCell id="IF_zVUQMi03LqPsfueBN-50" style="edgeStyle=orthogonalEdgeStyle;rounded=0;orthogonalLoop=1;jettySize=auto;html=1;exitX=0.5;exitY=1;exitDx=0;exitDy=0;entryX=0;entryY=0.5;entryDx=0;entryDy=0;fontSize=13;" parent="1" source="IF_zVUQMi03LqPsfueBN-1" target="IF_zVUQMi03LqPsfueBN-27" edge="1">
          <mxGeometry relative="1" as="geometry" />
        </mxCell>
        <mxCell id="IF_zVUQMi03LqPsfueBN-1" value="Початок" style="ellipse;whiteSpace=wrap;html=1;aspect=fixed;" parent="1" vertex="1">
          <mxGeometry y="160" width="80" height="80" as="geometry" />
        </mxCell>
        <mxCell id="IF_zVUQMi03LqPsfueBN-31" style="edgeStyle=orthogonalEdgeStyle;rounded=0;orthogonalLoop=1;jettySize=auto;html=1;exitX=1;exitY=0.5;exitDx=0;exitDy=0;entryX=0;entryY=0.5;entryDx=0;entryDy=0;fontSize=13;" parent="1" source="IF_zVUQMi03LqPsfueBN-2" target="IF_zVUQMi03LqPsfueBN-23" edge="1">
          <mxGeometry relative="1" as="geometry" />
        </mxCell>
        <mxCell id="IF_zVUQMi03LqPsfueBN-2" value="&lt;font style=&quot;font-size: 13px;&quot;&gt;Планування роботи&lt;/font&gt;" style="rounded=0;whiteSpace=wrap;html=1;" parent="1" vertex="1">
          <mxGeometry x="240" y="290" width="120" height="60" as="geometry" />
        </mxCell>
        <mxCell id="IF_zVUQMi03LqPsfueBN-21" style="edgeStyle=orthogonalEdgeStyle;rounded=0;orthogonalLoop=1;jettySize=auto;html=1;exitX=1;exitY=0.5;exitDx=0;exitDy=0;entryX=0;entryY=0.5;entryDx=0;entryDy=0;fontSize=13;" parent="1" source="IF_zVUQMi03LqPsfueBN-3" target="IF_zVUQMi03LqPsfueBN-6" edge="1">
          <mxGeometry relative="1" as="geometry">
            <mxPoint x="840" y="320" as="sourcePoint" />
          </mxGeometry>
        </mxCell>
        <mxCell id="IF_zVUQMi03LqPsfueBN-3" value="&lt;font style=&quot;font-size: 13px;&quot;&gt;Розробка та провадження функціоналу&lt;/font&gt;" style="rounded=0;whiteSpace=wrap;html=1;" parent="1" vertex="1">
          <mxGeometry x="720" y="290" width="120" height="60" as="geometry" />
        </mxCell>
        <mxCell id="IF_zVUQMi03LqPsfueBN-26" style="edgeStyle=orthogonalEdgeStyle;rounded=0;orthogonalLoop=1;jettySize=auto;html=1;exitX=0;exitY=0.5;exitDx=0;exitDy=0;entryX=0.5;entryY=0;entryDx=0;entryDy=0;fontSize=13;" parent="1" source="IF_zVUQMi03LqPsfueBN-4" target="IF_zVUQMi03LqPsfueBN-6" edge="1">
          <mxGeometry relative="1" as="geometry">
            <mxPoint x="960" y="200" as="sourcePoint" />
          </mxGeometry>
        </mxCell>
        <mxCell id="IF_zVUQMi03LqPsfueBN-4" value="&lt;font style=&quot;font-size: 13px;&quot;&gt;Виправлення знайдених недоліків&lt;/font&gt;" style="rounded=0;whiteSpace=wrap;html=1;" parent="1" vertex="1">
          <mxGeometry x="970" y="180" width="120" height="60" as="geometry" />
        </mxCell>
        <mxCell id="IF_zVUQMi03LqPsfueBN-33" style="edgeStyle=orthogonalEdgeStyle;rounded=0;orthogonalLoop=1;jettySize=auto;html=1;exitX=1;exitY=0.5;exitDx=0;exitDy=0;entryX=0;entryY=0.5;entryDx=0;entryDy=0;fontSize=13;" parent="1" source="IF_zVUQMi03LqPsfueBN-5" target="IF_zVUQMi03LqPsfueBN-3" edge="1">
          <mxGeometry relative="1" as="geometry" />
        </mxCell>
        <mxCell id="IF_zVUQMi03LqPsfueBN-5" value="&lt;font style=&quot;font-size: 13px;&quot;&gt;Дизайн&amp;nbsp;&lt;/font&gt;" style="rounded=0;whiteSpace=wrap;html=1;" parent="1" vertex="1">
          <mxGeometry x="560" y="290" width="120" height="60" as="geometry" />
        </mxCell>
        <mxCell id="IF_zVUQMi03LqPsfueBN-22" style="edgeStyle=orthogonalEdgeStyle;rounded=0;orthogonalLoop=1;jettySize=auto;html=1;exitX=1;exitY=0.5;exitDx=0;exitDy=0;entryX=0;entryY=0.5;entryDx=0;entryDy=0;fontSize=13;" parent="1" source="IF_zVUQMi03LqPsfueBN-6" target="IF_zVUQMi03LqPsfueBN-7" edge="1">
          <mxGeometry relative="1" as="geometry" />
        </mxCell>
        <mxCell id="IF_zVUQMi03LqPsfueBN-6" value="&lt;font style=&quot;font-size: 13px;&quot;&gt;Тестування&lt;/font&gt;" style="rounded=0;whiteSpace=wrap;html=1;" parent="1" vertex="1">
          <mxGeometry x="880" y="290" width="120" height="60" as="geometry" />
        </mxCell>
        <mxCell id="IF_zVUQMi03LqPsfueBN-24" value="Так" style="edgeStyle=orthogonalEdgeStyle;rounded=0;orthogonalLoop=1;jettySize=auto;html=1;exitX=1;exitY=0.5;exitDx=0;exitDy=0;entryX=0;entryY=0.5;entryDx=0;entryDy=0;fontSize=13;" parent="1" source="IF_zVUQMi03LqPsfueBN-7" target="IF_zVUQMi03LqPsfueBN-11" edge="1">
          <mxGeometry relative="1" as="geometry" />
        </mxCell>
        <mxCell id="IF_zVUQMi03LqPsfueBN-25" value="Ні" style="edgeStyle=orthogonalEdgeStyle;rounded=0;orthogonalLoop=1;jettySize=auto;html=1;exitX=0.5;exitY=0;exitDx=0;exitDy=0;entryX=1;entryY=0.5;entryDx=0;entryDy=0;fontSize=13;" parent="1" source="IF_zVUQMi03LqPsfueBN-7" target="IF_zVUQMi03LqPsfueBN-4" edge="1">
          <mxGeometry relative="1" as="geometry">
            <mxPoint x="1080" y="200" as="targetPoint" />
          </mxGeometry>
        </mxCell>
        <mxCell id="IF_zVUQMi03LqPsfueBN-7" value="&lt;font style=&quot;font-size: 13px;&quot;&gt;Результати &lt;br&gt;тестування &lt;br&gt;позитивні?&lt;/font&gt;" style="rhombus;whiteSpace=wrap;html=1;" parent="1" vertex="1">
          <mxGeometry x="1040" y="280" width="160" height="80" as="geometry" />
        </mxCell>
        <mxCell id="IF_zVUQMi03LqPsfueBN-30" style="edgeStyle=orthogonalEdgeStyle;rounded=0;orthogonalLoop=1;jettySize=auto;html=1;exitX=0.5;exitY=1;exitDx=0;exitDy=0;entryX=0.5;entryY=1;entryDx=0;entryDy=0;fontSize=13;" parent="1" source="IF_zVUQMi03LqPsfueBN-11" target="IF_zVUQMi03LqPsfueBN-3" edge="1">
          <mxGeometry relative="1" as="geometry">
            <Array as="points">
              <mxPoint x="1320" y="396" />
              <mxPoint x="780" y="396" />
            </Array>
          </mxGeometry>
        </mxCell>
        <mxCell id="IF_zVUQMi03LqPsfueBN-59" value="НІ" style="edgeLabel;html=1;align=center;verticalAlign=middle;resizable=0;points=[];fontSize=13;" parent="IF_zVUQMi03LqPsfueBN-30" vertex="1" connectable="0">
          <mxGeometry x="-0.3886" y="1" relative="1" as="geometry">
            <mxPoint as="offset" />
          </mxGeometry>
        </mxCell>
        <mxCell id="IF_zVUQMi03LqPsfueBN-37" style="edgeStyle=orthogonalEdgeStyle;rounded=0;orthogonalLoop=1;jettySize=auto;html=1;exitX=1;exitY=0.5;exitDx=0;exitDy=0;entryX=0;entryY=0.5;entryDx=0;entryDy=0;fontSize=13;" parent="1" source="IF_zVUQMi03LqPsfueBN-11" target="IF_zVUQMi03LqPsfueBN-34" edge="1">
          <mxGeometry relative="1" as="geometry" />
        </mxCell>
        <mxCell id="IF_zVUQMi03LqPsfueBN-11" value="&lt;font style=&quot;font-size: 13px;&quot;&gt;Весь&lt;br&gt;функціонал &lt;br&gt;реалізовано?&lt;/font&gt;" style="rhombus;whiteSpace=wrap;html=1;" parent="1" vertex="1">
          <mxGeometry x="1240" y="280" width="160" height="80" as="geometry" />
        </mxCell>
        <mxCell id="IF_zVUQMi03LqPsfueBN-38" style="edgeStyle=orthogonalEdgeStyle;rounded=0;orthogonalLoop=1;jettySize=auto;html=1;exitX=0.5;exitY=1;exitDx=0;exitDy=0;entryX=0.5;entryY=1;entryDx=0;entryDy=0;fontSize=13;" parent="1" source="IF_zVUQMi03LqPsfueBN-12" target="IF_zVUQMi03LqPsfueBN-27" edge="1">
          <mxGeometry relative="1" as="geometry">
            <Array as="points">
              <mxPoint x="2000" y="440" />
              <mxPoint x="140" y="440" />
            </Array>
          </mxGeometry>
        </mxCell>
        <mxCell id="IF_zVUQMi03LqPsfueBN-58" value="Так" style="edgeLabel;html=1;align=center;verticalAlign=middle;resizable=0;points=[];fontSize=13;" parent="IF_zVUQMi03LqPsfueBN-38" vertex="1" connectable="0">
          <mxGeometry x="-0.7129" y="-4" relative="1" as="geometry">
            <mxPoint as="offset" />
          </mxGeometry>
        </mxCell>
        <mxCell id="IF_zVUQMi03LqPsfueBN-41" value="НІ" style="edgeStyle=orthogonalEdgeStyle;rounded=0;orthogonalLoop=1;jettySize=auto;html=1;exitX=1;exitY=0.5;exitDx=0;exitDy=0;fontSize=13;entryX=0;entryY=0.5;entryDx=0;entryDy=0;" parent="1" source="IF_zVUQMi03LqPsfueBN-12" target="IF_zVUQMi03LqPsfueBN-42" edge="1">
          <mxGeometry relative="1" as="geometry">
            <mxPoint x="2100" y="370" as="targetPoint" />
          </mxGeometry>
        </mxCell>
        <mxCell id="IF_zVUQMi03LqPsfueBN-12" value="Необхідне &lt;br&gt;впровадження нових функцій?" style="rhombus;whiteSpace=wrap;html=1;fontSize=13;" parent="1" vertex="1">
          <mxGeometry x="1920" y="280" width="160" height="80" as="geometry" />
        </mxCell>
        <mxCell id="IF_zVUQMi03LqPsfueBN-32" style="edgeStyle=orthogonalEdgeStyle;rounded=0;orthogonalLoop=1;jettySize=auto;html=1;exitX=1;exitY=0.5;exitDx=0;exitDy=0;entryX=0;entryY=0.5;entryDx=0;entryDy=0;fontSize=13;" parent="1" source="IF_zVUQMi03LqPsfueBN-23" target="IF_zVUQMi03LqPsfueBN-5" edge="1">
          <mxGeometry relative="1" as="geometry" />
        </mxCell>
        <mxCell id="IF_zVUQMi03LqPsfueBN-23" value="Аналіз вимог" style="rounded=0;whiteSpace=wrap;html=1;fontSize=13;" parent="1" vertex="1">
          <mxGeometry x="400" y="290" width="120" height="60" as="geometry" />
        </mxCell>
        <mxCell id="IF_zVUQMi03LqPsfueBN-29" style="edgeStyle=orthogonalEdgeStyle;rounded=0;orthogonalLoop=1;jettySize=auto;html=1;exitX=1;exitY=0.5;exitDx=0;exitDy=0;entryX=0;entryY=0.5;entryDx=0;entryDy=0;fontSize=13;" parent="1" source="IF_zVUQMi03LqPsfueBN-27" target="IF_zVUQMi03LqPsfueBN-2" edge="1">
          <mxGeometry relative="1" as="geometry" />
        </mxCell>
        <mxCell id="IF_zVUQMi03LqPsfueBN-27" value="Консультація з клієнтом" style="rounded=0;whiteSpace=wrap;html=1;fontSize=13;" parent="1" vertex="1">
          <mxGeometry x="80" y="290" width="120" height="60" as="geometry" />
        </mxCell>
        <mxCell id="IF_zVUQMi03LqPsfueBN-36" style="edgeStyle=orthogonalEdgeStyle;rounded=0;orthogonalLoop=1;jettySize=auto;html=1;exitX=1;exitY=0.5;exitDx=0;exitDy=0;entryX=0;entryY=0.5;entryDx=0;entryDy=0;fontSize=13;" parent="1" source="IF_zVUQMi03LqPsfueBN-34" target="IF_zVUQMi03LqPsfueBN-35" edge="1">
          <mxGeometry relative="1" as="geometry" />
        </mxCell>
        <mxCell id="IF_zVUQMi03LqPsfueBN-34" value="Підготовка до запуску" style="rounded=0;whiteSpace=wrap;html=1;fontSize=13;" parent="1" vertex="1">
          <mxGeometry x="1440" y="290" width="120" height="60" as="geometry" />
        </mxCell>
        <mxCell id="IF_zVUQMi03LqPsfueBN-39" style="edgeStyle=orthogonalEdgeStyle;rounded=0;orthogonalLoop=1;jettySize=auto;html=1;exitX=1;exitY=0.5;exitDx=0;exitDy=0;fontSize=13;entryX=0;entryY=0.5;entryDx=0;entryDy=0;" parent="1" source="IF_zVUQMi03LqPsfueBN-35" target="IF_zVUQMi03LqPsfueBN-40" edge="1">
          <mxGeometry relative="1" as="geometry">
            <mxPoint x="1730" y="180" as="targetPoint" />
          </mxGeometry>
        </mxCell>
        <mxCell id="IF_zVUQMi03LqPsfueBN-35" value="Запуск" style="rounded=0;whiteSpace=wrap;html=1;fontSize=13;" parent="1" vertex="1">
          <mxGeometry x="1600" y="290" width="120" height="60" as="geometry" />
        </mxCell>
        <mxCell id="IF_zVUQMi03LqPsfueBN-43" style="edgeStyle=orthogonalEdgeStyle;rounded=0;orthogonalLoop=1;jettySize=auto;html=1;exitX=1;exitY=0.5;exitDx=0;exitDy=0;fontSize=13;entryX=0;entryY=0.5;entryDx=0;entryDy=0;" parent="1" source="IF_zVUQMi03LqPsfueBN-40" target="IF_zVUQMi03LqPsfueBN-12" edge="1">
          <mxGeometry relative="1" as="geometry">
            <mxPoint x="1960" y="390" as="targetPoint" />
          </mxGeometry>
        </mxCell>
        <mxCell id="IF_zVUQMi03LqPsfueBN-40" value="Підтримка" style="rounded=0;whiteSpace=wrap;html=1;fontSize=13;" parent="1" vertex="1">
          <mxGeometry x="1760" y="290" width="120" height="60" as="geometry" />
        </mxCell>
        <mxCell id="IF_zVUQMi03LqPsfueBN-44" value="Ні" style="edgeStyle=orthogonalEdgeStyle;rounded=0;orthogonalLoop=1;jettySize=auto;html=1;exitX=0.5;exitY=0;exitDx=0;exitDy=0;entryX=0.5;entryY=0;entryDx=0;entryDy=0;fontSize=13;" parent="1" source="IF_zVUQMi03LqPsfueBN-42" target="IF_zVUQMi03LqPsfueBN-40" edge="1">
          <mxGeometry relative="1" as="geometry">
            <Array as="points">
              <mxPoint x="2240" y="210" />
              <mxPoint x="1820" y="210" />
            </Array>
          </mxGeometry>
        </mxCell>
        <mxCell id="IF_zVUQMi03LqPsfueBN-57" value="Так" style="edgeStyle=orthogonalEdgeStyle;rounded=0;orthogonalLoop=1;jettySize=auto;html=1;exitX=0.5;exitY=1;exitDx=0;exitDy=0;fontSize=13;" parent="1" source="IF_zVUQMi03LqPsfueBN-42" target="IF_zVUQMi03LqPsfueBN-45" edge="1">
          <mxGeometry relative="1" as="geometry" />
        </mxCell>
        <mxCell id="IF_zVUQMi03LqPsfueBN-42" value="Підтримку&lt;br&gt;&amp;nbsp;ПЗ припинено?" style="rhombus;whiteSpace=wrap;html=1;fontSize=13;" parent="1" vertex="1">
          <mxGeometry x="2160" y="280" width="160" height="80" as="geometry" />
        </mxCell>
        <mxCell id="IF_zVUQMi03LqPsfueBN-45" value="Кінець" style="ellipse;whiteSpace=wrap;html=1;aspect=fixed;fontSize=13;" parent="1" vertex="1">
          <mxGeometry x="2200" y="440" width="80" height="80" as="geometry" />
        </mxCell>
        <mxCell id="qHFjrfzewxJxyT735zwG-1" value="Менеджер по роботі з клієнтами" style="text;html=1;strokeColor=none;fillColor=none;align=center;verticalAlign=middle;whiteSpace=wrap;rounded=0;fontSize=13;" vertex="1" parent="1">
          <mxGeometry x="80" y="260" width="120" height="30" as="geometry" />
        </mxCell>
        <mxCell id="qHFjrfzewxJxyT735zwG-2" value="Менеджер проекту" style="text;html=1;strokeColor=none;fillColor=none;align=center;verticalAlign=middle;whiteSpace=wrap;rounded=0;fontSize=13;" vertex="1" parent="1">
          <mxGeometry x="240" y="260" width="120" height="30" as="geometry" />
        </mxCell>
        <mxCell id="qHFjrfzewxJxyT735zwG-3" value="Рада на чолі з менеджером проекту" style="text;html=1;strokeColor=none;fillColor=none;align=center;verticalAlign=middle;whiteSpace=wrap;rounded=0;fontSize=13;" vertex="1" parent="1">
          <mxGeometry x="390" y="260" width="140" height="30" as="geometry" />
        </mxCell>
        <mxCell id="qHFjrfzewxJxyT735zwG-4" value="Команда розробників" style="text;html=1;strokeColor=none;fillColor=none;align=center;verticalAlign=middle;whiteSpace=wrap;rounded=0;fontSize=13;" vertex="1" parent="1">
          <mxGeometry x="560" y="260" width="120" height="30" as="geometry" />
        </mxCell>
        <mxCell id="qHFjrfzewxJxyT735zwG-5" value="Розробник" style="text;html=1;strokeColor=none;fillColor=none;align=center;verticalAlign=middle;whiteSpace=wrap;rounded=0;fontSize=13;" vertex="1" parent="1">
          <mxGeometry x="720" y="260" width="120" height="30" as="geometry" />
        </mxCell>
        <mxCell id="qHFjrfzewxJxyT735zwG-6" value="Тестувальник" style="text;html=1;strokeColor=none;fillColor=none;align=center;verticalAlign=middle;whiteSpace=wrap;rounded=0;fontSize=13;" vertex="1" parent="1">
          <mxGeometry x="880" y="260" width="120" height="30" as="geometry" />
        </mxCell>
        <mxCell id="qHFjrfzewxJxyT735zwG-7" value="Розробник" style="text;html=1;strokeColor=none;fillColor=none;align=center;verticalAlign=middle;whiteSpace=wrap;rounded=0;fontSize=13;" vertex="1" parent="1">
          <mxGeometry x="970" y="150" width="120" height="30" as="geometry" />
        </mxCell>
        <mxCell id="qHFjrfzewxJxyT735zwG-8" value="Команда розробників та персонал організації" style="text;html=1;strokeColor=none;fillColor=none;align=center;verticalAlign=middle;whiteSpace=wrap;rounded=0;fontSize=13;" vertex="1" parent="1">
          <mxGeometry x="1430" y="250" width="140" height="30" as="geometry" />
        </mxCell>
        <mxCell id="qHFjrfzewxJxyT735zwG-9" value="Команда розробників" style="text;html=1;strokeColor=none;fillColor=none;align=center;verticalAlign=middle;whiteSpace=wrap;rounded=0;fontSize=13;" vertex="1" parent="1">
          <mxGeometry x="1600" y="250" width="120" height="40" as="geometry" />
        </mxCell>
        <mxCell id="qHFjrfzewxJxyT735zwG-10" value="Персонал розробників та підтримки" style="text;html=1;strokeColor=none;fillColor=none;align=center;verticalAlign=middle;whiteSpace=wrap;rounded=0;fontSize=13;" vertex="1" parent="1">
          <mxGeometry x="1760" y="250" width="120" height="30" as="geometry" />
        </mxCell>
      </root>
    </mxGraphModel>
  </diagram>
</mxfile>
